# xmcd
# Track frame offsets:
# 150
# 12933
# 25720
# 41685
# 55783
# 68903
# 80678
# 94740
# 106635
# 119888
#
# Disc length: 1756 seconds
# Revision: 0
# Processed by: cddbd v1.4PL0 Copyright (c) Steve Scherf et al.
# Submitted via: VisiTrax 2.9.5.180 - For more info visit www.synapsa.com
#
DISCID=7c06da0a
DTITLE=Arne Benoni - On easy street
DYEAR=1900
DGENRE=
TTITLE0=Fool
TTITLE1=Stop you're killing me
TTITLE2=Turn it around
TTITLE3=Don't give up on her now
TTITLE4=(if I live to be a hundred) I'll die young
TTITLE5=Easy street
TTITLE6=Those evening bells
TTITLE7=Next to you
TTITLE8=Southern lady
TTITLE9=One more time
EXTD=
EXTT0=
EXTT1=
EXTT2=
EXTT3=
EXTT4=
EXTT5=
EXTT6=
EXTT7=
EXTT8=
EXTT9=
PLAYORDER=
